<svg xmlns="http://www.w3.org/2000/svg" viewBox="0 0 166.24 35.44"><title>logo</title><path d="M29.34,57.71a17.16,17.16,0,0,1-7.47-1.84H14.65a0,0,0,0,1,0,0V53.77a1,1,0,0,0-1-1H5.3a0,0,0,0,1,0-.07l7.53-8.4v0A17.19,17.19,0,0,1,12.45,42a0,0,0,0,0-.07,0L4.12,51.23v-.35A25.87,25.87,0,0,1,29.92,25a0,0,0,0,0,0,0V23.23a0,0,0,0,0,0,0A27.72,27.72,0,0,0,2.27,50.88V53h0v1.07a.81.81,0,0,0,.14.24,1,1,0,0,0,.78.34h9.52a0,0,0,0,1,0,0v2.06a1,1,0,0,0,1,1H29.34Z" transform="translate(-2.27 -22.28)" style="fill:#c22"/><path d="M5.95,24.12a1.86,1.86,0,1,0-.48,1.22A1.82,1.82,0,0,0,5.95,24.12Z" transform="translate(-2.27 -22.28)" style="fill:#c22"/><path d="M29.65,56.8A16.35,16.35,0,1,0,13.29,40.44c0,.18,0,.36,0,.55l.92-1L27.49,25.17A15.48,15.48,0,0,1,29.65,25h.47l-2.27,2.53V38.95a3.06,3.06,0,1,1-1.85,0V29.62l-11.62,13-.79.88A16.35,16.35,0,0,0,29.65,56.8Zm-1.31-7.11a3.06,3.06,0,0,1,2.13-2.91V25a15.43,15.43,0,0,1,1.85.21V34l5.25,3.29a.92.92,0,0,1,.43.78v3.14a3.06,3.06,0,1,1-1.85,0V38.63l-3.83-2.4V46.77a3.06,3.06,0,1,1-4,2.91Z" transform="translate(-2.27 -22.28)" style="fill:#5c5c5c"/><circle cx="24.65" cy="19.59" r="1.21" style="fill:#5c5c5c"/><circle cx="34.8" cy="21.89" r="1.21" style="fill:#5c5c5c"/><circle cx="29.12" cy="27.41" r="1.21" style="fill:#5c5c5c"/><path d="M46.92,40.44A17.3,17.3,0,0,0,29.65,23.17l-.91,0H8A3.21,3.21,0,0,1,8,25H21.83a17.29,17.29,0,0,0-9.47,15.4c0,.51,0,1,.07,1.51l1.79-2A15.44,15.44,0,0,1,29.65,25h.47l.35,0A15.42,15.42,0,1,1,14.37,42.58l-1.56,1.74a17.34,17.34,0,0,0,9.06,11.55,17.16,17.16,0,0,0,7.47,1.85h.3A17.3,17.3,0,0,0,46.92,40.44Z" transform="translate(-2.27 -22.28)" style="fill:#c22"/><path d="M57.54,41l5.32-.33a4.06,4.06,0,0,0,.7,2A3,3,0,0,0,66,43.72a2.73,2.73,0,0,0,1.84-.56,1.68,1.68,0,0,0,.65-1.3,1.66,1.66,0,0,0-.62-1.26,7.15,7.15,0,0,0-2.86-1,12.16,12.16,0,0,1-5.24-2.2,4.42,4.42,0,0,1-1.58-3.49A4.75,4.75,0,0,1,59,31.23a5.36,5.36,0,0,1,2.43-1.95,11.35,11.35,0,0,1,4.45-.71,9.1,9.1,0,0,1,5.29,1.29A5.57,5.57,0,0,1,73.36,34l-5.27.31a2.46,2.46,0,0,0-2.74-2.33,2.24,2.24,0,0,0-1.47.41,1.27,1.27,0,0,0-.49,1,1,1,0,0,0,.41.78,4.58,4.58,0,0,0,1.88.67,23.51,23.51,0,0,1,5.25,1.6,5.52,5.52,0,0,1,2.31,2A5.08,5.08,0,0,1,74,41.08a5.73,5.73,0,0,1-1,3.21,6,6,0,0,1-2.69,2.23,10.87,10.87,0,0,1-4.36.76q-4.61,0-6.39-1.78A7,7,0,0,1,57.54,41Z" transform="translate(-2.27 -22.28)" style="fill:#c22"/><path d="M76.74,28.88H86a6.36,6.36,0,0,1,4.55,1.44,5.42,5.42,0,0,1,1.51,4.11,5.58,5.58,0,0,1-1.65,4.28,7.14,7.14,0,0,1-5,1.54H82.36V47H76.74Zm5.61,7.71h1.37A3.52,3.52,0,0,0,86,36a1.81,1.81,0,0,0,.65-1.44,2,2,0,0,0-.57-1.44,2.94,2.94,0,0,0-2.13-.59H82.36Z" transform="translate(-2.27 -22.28)" style="fill:#c22"/><path d="M95,28.88h15v3.86h-9.38v2.88h8.7V39.3h-8.7v3.57h9.65V47H95Z" transform="translate(-2.27 -22.28)" style="fill:#c22"/><path d="M113.25,28.88h15v3.86h-9.38v2.88h8.7V39.3h-8.7v3.57h9.65V47H113.25Z" transform="translate(-2.27 -22.28)" style="fill:#c22"/><path d="M143.56,39.56l4.9,1.48a9,9,0,0,1-1.55,3.44,6.75,6.75,0,0,1-2.63,2.09,9.86,9.86,0,0,1-4,.7,11.62,11.62,0,0,1-4.82-.86,7.64,7.64,0,0,1-3.23-3,10.22,10.22,0,0,1-1.36-5.52q0-4.49,2.39-6.9a10.87,10.87,0,0,1,12.13-1,8.13,8.13,0,0,1,2.91,4.25l-4.94,1.1a4.26,4.26,0,0,0-.54-1.21,3.22,3.22,0,0,0-1.15-1,3.53,3.53,0,0,0-4.43,1.18,6.48,6.48,0,0,0-.77,3.56q0,3,.91,4.12a3.6,3.6,0,0,0,5,.21A5.57,5.57,0,0,0,143.56,39.56Z" transform="translate(-2.27 -22.28)" style="fill:#c22"/><path d="M151.2,28.88h5.59v6.33h6.11V28.88h5.61V47H162.9V39.65h-6.11V47H151.2Z" transform="translate(-2.27 -22.28)" style="fill:#c22"/></svg>