<svg xmlns="http://www.w3.org/2000/svg" viewBox="0 0 160 160"><title>jhk2</title><path d="M90.5,86.19A38,38,0,0,1,74,82.11H58a.09.09,0,0,1-.09-.09V77.46a2.14,2.14,0,0,0-2.14-2.14H37.3a.09.09,0,0,1-.07-.15L53.89,56.59l0-.08a38,38,0,0,1-.8-5,.09.09,0,0,0-.15-.05L34.7,71.85v-.77A57.24,57.24,0,0,1,91.79,13.9a.09.09,0,0,0,.09-.09V9.89a.09.09,0,0,0-.09-.09A61.34,61.34,0,0,0,30.6,71.08v4.7h0v2.36a1.8,1.8,0,0,0,.31.53,2.2,2.2,0,0,0,1.73.76H53.71a.09.09,0,0,1,.09.09v4.55a2.14,2.14,0,0,0,2.14,2.14H90.5Z" style="fill:#c22"/><path d="M38.74,11.85a4.11,4.11,0,1,0-1.06,2.71A4,4,0,0,0,38.74,11.85Z" style="fill:#c22"/><path d="M91.17,84.16A36.18,36.18,0,1,0,55,48c0,.4,0,.81,0,1.21l2-2.28L86.4,14.19a34.24,34.24,0,0,1,4.77-.34l1,0-5,5.6v25.2a6.77,6.77,0,1,1-4.09,0V24L57.37,52.71l-1.76,2A36.18,36.18,0,0,0,91.17,84.16ZM88.26,68.43A6.78,6.78,0,0,1,93,62V13.91a34.14,34.14,0,0,1,4.09.46V33.81l11.62,7.28a2,2,0,0,1,1,1.73v6.94a6.77,6.77,0,1,1-4.09,0V44l-8.48-5.32V62a6.76,6.76,0,1,1-8.81,6.45Z" style="fill:#5c5c5c"/><circle cx="85.13" cy="51.12" r="2.67" style="fill:#5c5c5c"/><circle cx="107.61" cy="56.22" r="2.67" style="fill:#5c5c5c"/><circle cx="95.03" cy="68.43" r="2.67" style="fill:#5c5c5c"/><path d="M129.4,48A38.27,38.27,0,0,0,91.17,9.75q-1,0-2,.05H43.24a7.1,7.1,0,0,1,0,4.09H73.88A38.26,38.26,0,0,0,52.94,48c0,1.13.06,2.25.16,3.35l4-4.42A34.16,34.16,0,0,1,91.17,13.85l1,0,.78,0a34.12,34.12,0,1,1-35.61,38.8l-3.45,3.85A38.36,38.36,0,0,0,74,82.1,38,38,0,0,0,90.5,86.19l.67,0A38.27,38.27,0,0,0,129.4,48Z" style="fill:#c22"/><path d="M1.23,118.16l7.48-.47a5.71,5.71,0,0,0,1,2.78A4.16,4.16,0,0,0,13.18,122a3.85,3.85,0,0,0,2.6-.79,2.37,2.37,0,0,0,.91-1.83,2.34,2.34,0,0,0-.87-1.77,10.06,10.06,0,0,0-4-1.48Q6.61,115,4.41,113.05a6.22,6.22,0,0,1-2.22-4.91,6.67,6.67,0,0,1,1.14-3.71,7.54,7.54,0,0,1,3.42-2.74,16,16,0,0,1,6.26-1q4.88,0,7.44,1.81a7.84,7.84,0,0,1,3,5.77l-7.41.43a4,4,0,0,0-1.24-2.5,4,4,0,0,0-2.61-.78,3.15,3.15,0,0,0-2.07.58,1.78,1.78,0,0,0-.69,1.42,1.42,1.42,0,0,0,.57,1.09,6.44,6.44,0,0,0,2.64.94,33,33,0,0,1,7.39,2.25,7.76,7.76,0,0,1,3.25,2.82,7.15,7.15,0,0,1,1,3.77A8.07,8.07,0,0,1,23,122.81a8.47,8.47,0,0,1-3.79,3.13A15.29,15.29,0,0,1,13.06,127q-6.49,0-9-2.5A9.86,9.86,0,0,1,1.23,118.16Z" style="fill:#c22"/><path d="M28.25,101.12H41.32q4.27,0,6.4,2a7.62,7.62,0,0,1,2.13,5.78,7.85,7.85,0,0,1-2.32,6q-2.32,2.17-7.08,2.17H36.15v9.45h-7.9ZM36.15,112h1.93a5,5,0,0,0,3.19-.79,2.54,2.54,0,0,0,.92-2,2.83,2.83,0,0,0-.8-2,4.14,4.14,0,0,0-3-.83H36.15Z" style="fill:#c22"/><path d="M53.95,101.12H75v5.43H61.83v4H74.07v5.19H61.83v5H75.41v5.76H53.95Z" style="fill:#c22"/><path d="M79.63,101.12h21.08v5.43H87.51v4H99.75v5.19H87.51v5h13.58v5.76H79.63Z" style="fill:#c22"/><path d="M122.27,116.16l6.89,2.08a12.71,12.71,0,0,1-2.19,4.84,9.49,9.49,0,0,1-3.71,2.93,13.86,13.86,0,0,1-5.63,1,16.36,16.36,0,0,1-6.78-1.21,10.75,10.75,0,0,1-4.54-4.24,14.38,14.38,0,0,1-1.91-7.77q0-6.31,3.36-9.71t9.51-3.39a12.91,12.91,0,0,1,7.56,1.95,11.43,11.43,0,0,1,4.09,6L122,110.15a5.93,5.93,0,0,0-.76-1.7,4.51,4.51,0,0,0-1.61-1.39,5,5,0,0,0-6.23,1.66,9.13,9.13,0,0,0-1.08,5q0,4.23,1.28,5.8a5.07,5.07,0,0,0,7,.3A7.84,7.84,0,0,0,122.27,116.16Z" style="fill:#c22"/><path d="M133,101.12h7.87V110h8.59v-8.91h7.9v25.45h-7.9v-10.3h-8.59v10.3H133Z" style="fill:#c22"/><path d="M2.9,146.62V132.45h7.3a10.58,10.58,0,0,1,3.1.35A3.3,3.3,0,0,1,15,134.09a4,4,0,0,1-1.23,5.72,5.3,5.3,0,0,1-1.54.56,4.33,4.33,0,0,1,1.14.52,4.38,4.38,0,0,1,.7.74,5.61,5.61,0,0,1,.61.88l2.12,4.11H11.89l-2.34-4.33a3.3,3.3,0,0,0-.79-1.09,1.84,1.84,0,0,0-1.07-.33H7.3v5.75Zm4.4-8.43H9.15a6.59,6.59,0,0,0,1.16-.19,1.16,1.16,0,0,0,.71-.44,1.43,1.43,0,0,0-.16-1.87,2.64,2.64,0,0,0-1.63-.37H7.3Z" style="fill:#5c5c5c"/><path d="M18.23,132.45H30v3H22.62v2.25h6.81v2.89H22.62v2.79h7.56v3.21H18.23Z" style="fill:#5c5c5c"/><path d="M42,140.82,45.8,142a7.08,7.08,0,0,1-1.22,2.7,5.28,5.28,0,0,1-2.06,1.63,7.72,7.72,0,0,1-3.14.55,9.11,9.11,0,0,1-3.77-.67,6,6,0,0,1-2.53-2.36A8,8,0,0,1,32,139.5a7.35,7.35,0,0,1,1.87-5.4,7.11,7.11,0,0,1,5.29-1.89,7.19,7.19,0,0,1,4.21,1.08,6.36,6.36,0,0,1,2.28,3.32l-3.87.86a3.32,3.32,0,0,0-.43-.95,2.51,2.51,0,0,0-.9-.77,2.76,2.76,0,0,0-3.47.93,5.08,5.08,0,0,0-.6,2.79,5.31,5.31,0,0,0,.71,3.23,2.82,2.82,0,0,0,3.91.17A4.36,4.36,0,0,0,42,140.82Z" style="fill:#5c5c5c"/><path d="M47.38,139.55a6.71,6.71,0,0,1,7.31-7.33,7.41,7.41,0,0,1,5.45,1.9,7.16,7.16,0,0,1,1.91,5.32,8.72,8.72,0,0,1-.84,4.07A6,6,0,0,1,58.8,146a8,8,0,0,1-3.94.88,9.06,9.06,0,0,1-4-.76,6,6,0,0,1-2.55-2.42A8,8,0,0,1,47.38,139.55Zm4.38,0a4.75,4.75,0,0,0,.8,3.08,3,3,0,0,0,4.35,0,5.24,5.24,0,0,0,.77-3.3,4.38,4.38,0,0,0-.81-2.92,2.76,2.76,0,0,0-2.19-.92,2.66,2.66,0,0,0-2.13.94A4.77,4.77,0,0,0,51.75,139.56Z" style="fill:#5c5c5c"/><path d="M71.53,141.49v-2.95H78.3v6a13.87,13.87,0,0,1-3.44,1.8,11.68,11.68,0,0,1-3.54.48,8.61,8.61,0,0,1-4.11-.86,5.88,5.88,0,0,1-2.46-2.56,8.42,8.42,0,0,1-.87-3.9,8.15,8.15,0,0,1,1-4,6.19,6.19,0,0,1,2.8-2.6,9.11,9.11,0,0,1,3.88-.69,10.9,10.9,0,0,1,3.51.42A4.57,4.57,0,0,1,77,134a5.86,5.86,0,0,1,1.15,2.27l-4.22.75a2.28,2.28,0,0,0-.88-1.23,2.76,2.76,0,0,0-1.59-.43,2.87,2.87,0,0,0-2.29,1,4.81,4.81,0,0,0-.86,3.16,5,5,0,0,0,.87,3.29,3,3,0,0,0,2.41,1,4.59,4.59,0,0,0,1.4-.21,7.56,7.56,0,0,0,1.53-.72v-1.33Z" style="fill:#5c5c5c"/><path d="M80.93,132.45H85l5.33,7.84v-7.84h4.13v14.17H90.35L85,138.84v7.78H80.93Z" style="fill:#5c5c5c"/><path d="M97.56,132.45h4.39v14.17H97.56Z" style="fill:#5c5c5c"/><path d="M104.09,132.45H117.4V136h-4.46v10.67h-4.38V136h-4.46Z" style="fill:#5c5c5c"/><path d="M119.55,132.45h4.39v14.17h-4.39Z" style="fill:#5c5c5c"/><path d="M126.53,139.55a6.71,6.71,0,0,1,7.32-7.33,7.41,7.41,0,0,1,5.45,1.9,7.16,7.16,0,0,1,1.91,5.32,8.72,8.72,0,0,1-.84,4.07A6,6,0,0,1,138,146a8,8,0,0,1-3.94.88,9.06,9.06,0,0,1-4-.76,6,6,0,0,1-2.55-2.42A8,8,0,0,1,126.53,139.55Zm4.38,0a4.75,4.75,0,0,0,.8,3.08,3,3,0,0,0,4.35,0,5.24,5.24,0,0,0,.77-3.3,4.38,4.38,0,0,0-.81-2.92,2.76,2.76,0,0,0-2.19-.92,2.66,2.66,0,0,0-2.13.94A4.77,4.77,0,0,0,130.91,139.56Z" style="fill:#5c5c5c"/><path d="M143.59,132.45h4.09l5.33,7.84v-7.84h4.13v14.17H153l-5.31-7.78v7.78h-4.12Z" style="fill:#5c5c5c"/></svg>